<svg xmlns="http://www.w3.org/2000/svg" xmlns:xlink="http://www.w3.org/1999/xlink" version="1.1" x="0px" y="0px"
     viewBox="0 0 512 640" fill="white" enable-background="new 0 0 512 512" xml:space="preserve"><g><path d="M430.122,179.421c27.346-15.461,45.854-44.809,45.854-78.405c0-49.619-40.364-89.988-89.987-89.988   c-52.904,0-95.164,45.873-89.48,99.638c-25.422-12.868-55.582-12.873-81.014,0c5.685-53.647-36.468-99.638-89.48-99.638   c-49.613,0-89.988,40.369-89.988,89.988c0,33.597,18.508,62.944,45.863,78.405c-44.39,17.618-75.857,60.986-75.857,111.577v109.984   c0,5.522,4.473,10.002,10,10.002h119.982v79.986c0,5.522,4.482,10.001,10,10.001h219.971c5.526,0,10-4.479,10-10.001v-79.986   h119.991c5.519,0,9.99-4.479,9.99-10.002V290.998C505.968,240.407,474.501,197.039,430.122,179.421z M385.987,31.023   c38.598,0,69.985,31.399,69.985,69.992c0,38.597-31.389,69.996-69.985,69.996c-18.938,0-36.586-7.433-49.849-20.92   c-3.674-7.169-8.282-13.771-13.653-19.67c-4.287-9.239-6.494-19.122-6.494-29.406C315.991,62.423,347.39,31.023,385.987,31.023z    M325.952,192.693c-1.24,39.11-32.884,68.307-69.947,68.307c-38.734,0-69.996-31.58-69.996-69.996   c0-38.588,31.398-69.987,69.996-69.987C294.943,121.017,326.909,153.109,325.952,192.693z M56.026,101.016   c0-38.593,31.399-69.992,69.986-69.992c38.598,0,69.996,31.399,69.996,69.992c0,10.284-2.197,20.167-6.494,29.406   c-5.371,5.899-9.981,12.501-13.653,19.67c-13.263,13.487-30.901,20.92-49.849,20.92C87.426,171.012,56.026,139.612,56.026,101.016z    M26.024,390.982v-99.984c0-55.137,44.857-99.994,99.988-99.994c14.133,0,27.688,2.861,40.404,8.497   c2.822,30.002,20.432,55.767,45.453,69.908c-44.389,17.618-75.855,60.991-75.855,111.577v9.996H26.024L26.024,390.982z    M355.995,480.976H156.016v-99.989c0-55.137,44.857-99.988,99.989-99.988c55.133,0,99.99,44.854,99.99,99.988V480.976z    M485.976,390.982H375.986v-9.996c0-50.586-31.468-93.959-75.855-111.577c25.021-14.142,42.631-39.906,45.453-69.908   c12.717-5.636,26.281-8.497,40.404-8.497c55.131,0,99.987,44.857,99.987,99.994V390.982z"/></g>
</svg>